<svg xmlns="http://www.w3.org/2000/svg" xmlns:v="https://vecta.io/nano" viewBox="0 0 32 32"><circle cx="16" cy="16" r="16" fill="#fff3f3"/><path d="M21.8 13.6h2.5l-1.7 7.9h-2.5l1.7-7.9zm.3-1.9c0-.7.6-1.2 1.3-1.2s1.3.5 1.3 1.2-.6 1.2-1.3 1.2c-.7.1-1.3-.5-1.3-1.2zm3.5 1.9h2.5l-1.7 7.9h-2.5l1.7-7.9zm.3-1.9c0-.7.6-1.2 1.3-1.2s1.3.5 1.3 1.2-.6 1.2-1.3 1.2c-.7.1-1.3-.5-1.3-1.2z"/><linearGradient id="A" gradientUnits="userSpaceOnUse" x1="19.639" y1="16.091" x2="2.936" y2="16.091"><stop offset="0" stop-color="#ed1c24"/><stop offset="1" stop-color="#9e005d"/></linearGradient><path d="M3.5 10.9h2.8v1.9h.1c.4-1.3 1.6-2.1 3-2.1 1.5 0 2.6.8 3 2.2h.1c.5-1.3 1.7-2.2 3.3-2.2 2.1 0 3.5 1.4 3.5 3.6v7.3h-2.9V15c0-1.2-.6-1.9-1.7-1.9s-1.8.8-1.8 2v6.4h-3v-6.6c0-1.1-.6-1.8-1.7-1.8s-1.8.8-1.8 2v6.4H3.5V10.9z" fill="url(#A)"/></svg>
